<svg xmlns="http://www.w3.org/2000/svg" width="1760.0911865234375" height="1492.9432373046875" viewBox="-921.2072143554688 -679.3003540039062 1760.0911865234375 1492.9432373046875"><title>Neo4j Graph Visualization</title><desc>Created using Neo4j (http://www.neo4j.com/)</desc><g class="layer relationships"><g class="relationship" transform="translate(49.67456346157033 -277.8326183628243) rotate(400.14494007196026)"><path class="b-outline" fill="#A5ABB6" stroke="none" d="M 25 0.5 L 59.61857140558709 0.5 L 59.61857140558709 -0.5 L 25 -0.5 Z M 117.18497765558709 0.5 L 151.80354906117418 0.5 L 151.80354906117418 3.5 L 158.80354906117418 0 L 151.80354906117418 -3.5 L 151.80354906117418 -0.5 L 117.18497765558709 -0.5 Z"/><text text-anchor="middle" pointer-events="none" font-size="8px" fill="#000000" x="88.40177453058709" y="3" font-family="Helvetica Neue, Helvetica, Arial, sans-serif">PIONEER_OF</text></g><g class="relationship" transform="translate(49.67456346157033 -277.8326183628243) rotate(374.0415530271655)"><path class="b-outline" fill="#A5ABB6" stroke="none" d="M 25 0.5 L 25.269789151697843 0.5 L 25.269789151697843 -0.5 L 25 -0.5 Z M 76.59791415169784 0.5 L 76.86770330339569 0.5 L 76.86770330339569 3.5 L 83.86770330339569 0 L 76.86770330339569 -3.5 L 76.86770330339569 -0.5 L 76.59791415169784 -0.5 Z"/><text text-anchor="middle" pointer-events="none" font-size="8px" fill="#000000" x="50.93385165169784" y="3" font-family="Helvetica Neue, Helvetica, Arial, sans-serif">CO-FOUN…</text></g><g class="relationship" transform="translate(49.67456346157033 -277.8326183628243) rotate(456.8799324507488)"><path class="b-outline" fill="#A5ABB6" stroke="none" d="M 25 0.5 L 54.86493538085956 0.5 L 54.86493538085956 -0.5 L 25 -0.5 Z M 115.53681038085956 0.5 L 145.40174576171913 0.5 L 145.40174576171913 3.5 L 152.40174576171913 0 L 145.40174576171913 -3.5 L 145.40174576171913 -0.5 L 115.53681038085956 -0.5 Z"/><text text-anchor="middle" pointer-events="none" font-size="8px" fill="#000000" x="85.20087288085956" y="3" transform="rotate(180 85.20087288085956 0)" font-family="Helvetica Neue, Helvetica, Arial, sans-serif">BROTHER_OF</text></g><g class="relationship" transform="translate(49.67456346157033 -277.8326183628243) rotate(371.5595186476362)"><path class="b-outline" fill="#A5ABB6" stroke="none" d="M 25 0.5 L 51.66578483726289 0.5 L 51.66578483726289 -0.5 L 25 -0.5 Z M 146.8689098372629 0.5 L 173.53469467452578 0.5 L 173.53469467452578 3.5 L 180.53469467452578 0 L 173.53469467452578 -3.5 L 173.53469467452578 -0.5 L 146.8689098372629 -0.5 Z"/><text text-anchor="middle" pointer-events="none" font-size="8px" fill="#000000" x="99.26734733726289" y="3" font-family="Helvetica Neue, Helvetica, Arial, sans-serif">COLLABORATED_WITH</text></g><g class="relationship" transform="translate(49.67456346157033 -277.8326183628243) rotate(300.07577495610207)"><path class="b-outline" fill="#A5ABB6" stroke="none" d="M 25 0.5 L 32.26386572047079 0.5 L 32.26386572047079 -0.5 L 25 -0.5 Z M 75.90058447047079 0.5 L 83.16445019094158 0.5 L 83.16445019094158 3.5 L 90.16445019094158 0 L 83.16445019094158 -3.5 L 83.16445019094158 -0.5 L 75.90058447047079 -0.5 Z"/><text text-anchor="middle" pointer-events="none" font-size="8px" fill="#000000" x="54.08222509547079" y="3" font-family="Helvetica Neue, Helvetica, Arial, sans-serif">CREATED</text></g><g class="relationship" transform="translate(49.67456346157033 -277.8326183628243) rotate(343.33251538765035)"><path class="b-outline" fill="#A5ABB6" stroke="none" d="M 25 0.5 L 57.72382244107344 0.5 L 57.72382244107344 -0.5 L 25 -0.5 Z M 109.50507244107344 0.5 L 142.22889488214688 0.5 L 142.22889488214688 3.5 L 149.22889488214688 0 L 142.22889488214688 -3.5 L 142.22889488214688 -0.5 L 109.50507244107344 -0.5 Z"/><text text-anchor="middle" pointer-events="none" font-size="8px" fill="#000000" x="83.61444744107344" y="3" font-family="Helvetica Neue, Helvetica, Arial, sans-serif">PRODUCED</text></g><g class="relationship" transform="translate(49.67456346157033 -277.8326183628243) rotate(428.5026899675893)"><path class="b-outline" fill="#A5ABB6" stroke="none" d="M 25 0.5 L 74.14467145837091 0.5 L 74.14467145837091 -0.5 L 25 -0.5 Z M 125.92592145837091 0.5 L 175.07059291674182 0.5 L 175.07059291674182 3.5 L 182.07059291674182 0 L 175.07059291674182 -3.5 L 175.07059291674182 -0.5 L 125.92592145837091 -0.5 Z"/><text text-anchor="middle" pointer-events="none" font-size="8px" fill="#000000" x="100.03529645837091" y="3" font-family="Helvetica Neue, Helvetica, Arial, sans-serif">PRODUCED</text></g><g class="relationship" transform="translate(49.67456346157033 -277.8326183628243) rotate(260.6717894509673)"><path class="b-outline" fill="#A5ABB6" stroke="none" d="M 25 0.5 L 48.70049971473709 0.5 L 48.70049971473709 -0.5 L 25 -0.5 Z M 100.48174971473709 0.5 L 124.18224942947418 0.5 L 124.18224942947418 3.5 L 131.18224942947418 0 L 124.18224942947418 -3.5 L 124.18224942947418 -0.5 L 100.48174971473709 -0.5 Z"/><text text-anchor="middle" pointer-events="none" font-size="8px" fill="#000000" x="74.59112471473709" y="3" transform="rotate(180 74.59112471473709 0)" font-family="Helvetica Neue, Helvetica, Arial, sans-serif">PRODUCED</text></g><g class="relationship" transform="translate(49.67456346157033 -277.8326183628243) rotate(426.9600263637976)"><path class="b-outline" fill="#A5ABB6" stroke="none" d="M 25 0.5 L 26.016180193191673 0.5 L 26.016180193191673 -0.5 L 25 -0.5 Z M 77.79743019319167 0.5 L 78.81361038638335 0.5 L 78.81361038638335 3.5 L 85.81361038638335 0 L 78.81361038638335 -3.5 L 78.81361038638335 -0.5 L 77.79743019319167 -0.5 Z"/><text text-anchor="middle" pointer-events="none" font-size="8px" fill="#000000" x="51.90680519319167" y="3" font-family="Helvetica Neue, Helvetica, Arial, sans-serif">PRODUCED</text></g><g class="relationship" transform="translate(49.67456346157033 -277.8326183628243) rotate(222.19875265364288)"><path class="b-outline" fill="#A5ABB6" stroke="none" d="M 25 0.5 L 25.67106966746678 0.5 L 25.67106966746678 -0.5 L 25 -0.5 Z M 77.45231966746678 0.5 L 78.12338933493356 0.5 L 78.12338933493356 3.5 L 85.12338933493356 0 L 78.12338933493356 -3.5 L 78.12338933493356 -0.5 L 77.45231966746678 -0.5 Z"/><text text-anchor="middle" pointer-events="none" font-size="8px" fill="#000000" x="51.56169466746678" y="3" transform="rotate(180 51.56169466746678 0)" font-family="Helvetica Neue, Helvetica, Arial, sans-serif">PRODUCED</text></g><g class="relationship" transform="translate(49.67456346157033 -277.8326183628243) rotate(314.7500060834435)"><path class="b-outline" fill="#A5ABB6" stroke="none" d="M 25 0.5 L 73.01118442363912 0.5 L 73.01118442363912 -0.5 L 25 -0.5 Z M 124.79243442363912 0.5 L 172.80361884727824 0.5 L 172.80361884727824 3.5 L 179.80361884727824 0 L 172.80361884727824 -3.5 L 172.80361884727824 -0.5 L 124.79243442363912 -0.5 Z"/><text text-anchor="middle" pointer-events="none" font-size="8px" fill="#000000" x="98.90180942363912" y="3" font-family="Helvetica Neue, Helvetica, Arial, sans-serif">PRODUCED</text></g><g class="relationship" transform="translate(49.67456346157033 -277.8326183628243) rotate(286.9981741735884)"><path class="b-outline" fill="#A5ABB6" stroke="none" d="M 25 0.5 L 74.13821726385484 0.5 L 74.13821726385484 -0.5 L 25 -0.5 Z M 125.91946726385484 0.5 L 175.05768452770968 0.5 L 175.05768452770968 3.5 L 182.05768452770968 0 L 175.05768452770968 -3.5 L 175.05768452770968 -0.5 L 125.91946726385484 -0.5 Z"/><text text-anchor="middle" pointer-events="none" font-size="8px" fill="#000000" x="100.02884226385484" y="3" font-family="Helvetica Neue, Helvetica, Arial, sans-serif">PRODUCED</text></g><g class="relationship" transform="translate(49.67456346157033 -277.8326183628243) rotate(232.67683379008417)"><path class="b-outline" fill="#A5ABB6" stroke="none" d="M 25 0.5 L 72.08973510560735 0.5 L 72.08973510560735 -0.5 L 25 -0.5 Z M 123.87098510560735 0.5 L 170.9607202112147 0.5 L 170.9607202112147 3.5 L 177.9607202112147 0 L 170.9607202112147 -3.5 L 170.9607202112147 -0.5 L 123.87098510560735 -0.5 Z"/><text text-anchor="middle" pointer-events="none" font-size="8px" fill="#000000" x="97.98036010560735" y="3" transform="rotate(180 97.98036010560735 0)" font-family="Helvetica Neue, Helvetica, Arial, sans-serif">PRODUCED</text></g><g class="relationship" transform="translate(49.67456346157033 -277.8326183628243) rotate(204.27933926446838)"><path class="b-outline" fill="#A5ABB6" stroke="none" d="M 25 0.5 L 75.32354706194134 0.5 L 75.32354706194134 -0.5 L 25 -0.5 Z M 115.10870331194134 0.5 L 165.43225037388268 0.5 L 165.43225037388268 3.5 L 172.43225037388268 0 L 165.43225037388268 -3.5 L 165.43225037388268 -0.5 L 115.10870331194134 -0.5 Z"/><text text-anchor="middle" pointer-events="none" font-size="8px" fill="#000000" x="95.21612518694134" y="3" transform="rotate(180 95.21612518694134 0)" font-family="Helvetica Neue, Helvetica, Arial, sans-serif">OPENED</text></g><g class="relationship" transform="translate(49.67456346157033 -277.8326183628243) rotate(537.2189147304634)"><path class="b-outline" fill="#A5ABB6" stroke="none" d="M 25 0.5 L 44.04415880706699 0.5 L 44.04415880706699 -0.5 L 25 -0.5 Z M 87.83322130706699 0.5 L 106.87738011413398 0.5 L 106.87738011413398 3.5 L 113.87738011413398 0 L 106.87738011413398 -3.5 L 106.87738011413398 -0.5 L 87.83322130706699 -0.5 Z"/><text text-anchor="middle" pointer-events="none" font-size="8px" fill="#000000" x="65.93869005706699" y="3" transform="rotate(180 65.93869005706699 0)" font-family="Helvetica Neue, Helvetica, Arial, sans-serif">PLANNED</text></g><g class="relationship" transform="translate(49.67456346157033 -277.8326183628243) rotate(511.42665265858017)"><path class="b-outline" fill="#A5ABB6" stroke="none" d="M 25 0.5 L 75.63098655970649 0.5 L 75.63098655970649 -0.5 L 25 -0.5 Z M 119.42004905970649 0.5 L 170.05103561941297 0.5 L 170.05103561941297 3.5 L 177.05103561941297 0 L 170.05103561941297 -3.5 L 170.05103561941297 -0.5 L 119.42004905970649 -0.5 Z"/><text text-anchor="middle" pointer-events="none" font-size="8px" fill="#000000" x="97.52551780970649" y="3" transform="rotate(180 97.52551780970649 0)" font-family="Helvetica Neue, Helvetica, Arial, sans-serif">PLANNED</text></g><g class="relationship" transform="translate(49.67456346157033 -277.8326183628243) rotate(492.074190364646)"><path class="b-outline" fill="#A5ABB6" stroke="none" d="M 25 0.5 L 25.121403898430756 0.5 L 25.121403898430756 -0.5 L 25 -0.5 Z M 86.69171639843076 0.5 L 86.81312029686151 0.5 L 86.81312029686151 3.5 L 93.81312029686151 0 L 86.81312029686151 -3.5 L 86.81312029686151 -0.5 L 86.69171639843076 -0.5 Z"/><text text-anchor="middle" pointer-events="none" font-size="8px" fill="#000000" x="55.906560148430756" y="3" transform="rotate(180 55.906560148430756 0)" font-family="Helvetica Neue, Helvetica, Arial, sans-serif">CAUSE_OF_…</text></g><g class="relationship" transform="translate(49.67456346157033 -277.8326183628243) rotate(483.84006343343407)"><path class="b-outline" fill="#A5ABB6" stroke="none" d="M 25 0.5 L 63.19968659643938 0.5 L 63.19968659643938 -0.5 L 25 -0.5 Z M 142.3949990964394 0.5 L 180.59468569287876 0.5 L 180.59468569287876 3.5 L 187.59468569287876 0 L 180.59468569287876 -3.5 L 180.59468569287876 -0.5 L 142.3949990964394 -0.5 Z"/><text text-anchor="middle" pointer-events="none" font-size="8px" fill="#000000" x="102.79734284643938" y="3" transform="rotate(180 102.79734284643938 0)" font-family="Helvetica Neue, Helvetica, Arial, sans-serif">CONTRIBUTED_TO</text></g><g class="relationship" transform="translate(-780.4064653878032 105.40017188612536) rotate(461.5855369372738)"><path class="b-outline" fill="#A5ABB6" stroke="none" d="M 25 0.5 L 49.79064508718558 0.5 L 49.79064508718558 -0.5 L 25 -0.5 Z M 114.32970758718558 0.5 L 139.12035267437116 0.5 L 139.12035267437116 3.5 L 146.12035267437116 0 L 139.12035267437116 -3.5 L 139.12035267437116 -0.5 L 114.32970758718558 -0.5 Z"/><text text-anchor="middle" pointer-events="none" font-size="8px" fill="#000000" x="82.06017633718558" y="3" transform="rotate(180 82.06017633718558 0)" font-family="Helvetica Neue, Helvetica, Arial, sans-serif">OPERATED_BY</text></g><g class="relationship" transform="translate(-814.772675753032 273.03411440533597) rotate(316.4095522294713)"><path class="b-outline" fill="#A5ABB6" stroke="none" d="M 25 0.5 L 34.6615557641405 0.5 L 34.6615557641405 -0.5 L 25 -0.5 Z M 104.5365557641405 0.5 L 114.198111528281 0.5 L 114.198111528281 3.5 L 121.198111528281 0 L 114.198111528281 -3.5 L 114.198111528281 -0.5 L 104.5365557641405 -0.5 Z"/><text text-anchor="middle" pointer-events="none" font-size="8px" fill="#000000" x="69.5990557641405" y="3" font-family="Helvetica Neue, Helvetica, Arial, sans-serif">SUBSIDIARY_OF</text></g><g class="relationship" transform="translate(-780.4064653878032 105.40017188612536) rotate(368.15365951591735)"><path class="b-outline" fill="#A5ABB6" stroke="none" d="M 25 0.5 L 34.83376981731929 0.5 L 34.83376981731929 -0.5 L 25 -0.5 Z M 121.0095510673193 0.5 L 130.8433208846386 0.5 L 130.8433208846386 3.5 L 137.8433208846386 0 L 130.8433208846386 -3.5 L 130.8433208846386 -0.5 L 121.0095510673193 -0.5 Z"/><text text-anchor="middle" pointer-events="none" font-size="8px" fill="#000000" x="77.9216604423193" y="3" font-family="Helvetica Neue, Helvetica, Arial, sans-serif">CONTAINS_SERVICE</text></g><g class="relationship" transform="translate(-780.4064653878032 105.40017188612536) rotate(428.62963744308354)"><path class="b-outline" fill="#A5ABB6" stroke="none" d="M 25 0.5 L 42.419116758090894 0.5 L 42.419116758090894 -0.5 L 25 -0.5 Z M 128.5948980080909 0.5 L 146.0140147661818 0.5 L 146.0140147661818 3.5 L 153.0140147661818 0 L 146.0140147661818 -3.5 L 146.0140147661818 -0.5 L 128.5948980080909 -0.5 Z"/><text text-anchor="middle" pointer-events="none" font-size="8px" fill="#000000" x="85.5070073830909" y="3" font-family="Helvetica Neue, Helvetica, Arial, sans-serif">CONTAINS_SERVICE</text></g><g class="relationship" transform="translate(-780.4064653878032 105.40017188612536) rotate(398.3715314340036)"><path class="b-outline" fill="#A5ABB6" stroke="none" d="M 25 0.5 L 51.34574024862678 0.5 L 51.34574024862678 -0.5 L 25 -0.5 Z M 137.52152149862678 0.5 L 163.86726174725356 0.5 L 163.86726174725356 3.5 L 170.86726174725356 0 L 163.86726174725356 -3.5 L 163.86726174725356 -0.5 L 137.52152149862678 -0.5 Z"/><text text-anchor="middle" pointer-events="none" font-size="8px" fill="#000000" x="94.43363087362678" y="3" font-family="Helvetica Neue, Helvetica, Arial, sans-serif">CONTAINS_SERVICE</text></g><g class="relationship" transform="translate(-780.4064653878032 105.40017188612536) rotate(331.4238678978482)"><path class="b-outline" fill="#A5ABB6" stroke="none" d="M 25 0.5 L 28.66015858221151 0.5 L 28.66015858221151 -0.5 L 25 -0.5 Z M 114.83593983221151 0.5 L 118.49609841442302 0.5 L 118.49609841442302 3.5 L 125.49609841442302 0 L 118.49609841442302 -3.5 L 118.49609841442302 -0.5 L 114.83593983221151 -0.5 Z"/><text text-anchor="middle" pointer-events="none" font-size="8px" fill="#000000" x="71.74804920721151" y="3" font-family="Helvetica Neue, Helvetica, Arial, sans-serif">CONTAINS_SERVICE</text></g><g class="relationship" transform="translate(-270.87255248796106 649.5115936906137) rotate(279.5333778471216)"><path class="b-outline" fill="#A5ABB6" stroke="none" d="M 25 0.5 L 49.08504252722791 0.5 L 49.08504252722791 -0.5 L 25 -0.5 Z M 86.65144877722791 0.5 L 110.73649130445583 0.5 L 110.73649130445583 3.5 L 117.73649130445583 0 L 110.73649130445583 -3.5 L 110.73649130445583 -0.5 L 86.65144877722791 -0.5 Z"/><text text-anchor="middle" pointer-events="none" font-size="8px" fill="#000000" x="67.86824565222791" y="3" font-family="Helvetica Neue, Helvetica, Arial, sans-serif">SIBLING</text></g></g><g class="layer nodes"><g class="node" aria-label="graph-node0" transform="translate(20.39646309335203,784.6426120359502)"><circle class="b-outline" cx="0" cy="0" r="25" fill="#57C7E3" stroke="#23b3d7" stroke-width="2px"/><text class="caption" text-anchor="middle" pointer-events="none" x="0" y="-5" font-size="10px" fill="#2A2C34" font-family="Helvetica Neue, Helvetica, Arial, sans-serif"> Walter</text><text class="caption" text-anchor="middle" pointer-events="none" x="0" y="5" font-size="10px" fill="#2A2C34" font-family="Helvetica Neue, Helvetica, Arial, sans-serif"> Elias</text><text class="caption" text-anchor="middle" pointer-events="none" x="0" y="15" font-size="10px" fill="#2A2C34" font-family="Helvetica Neue, Helvetica, Arial, sans-serif"> Dis…</text></g><g class="node" aria-label="graph-node1" transform="translate(-74.0468701484105,638.584283554717)"><circle class="b-outline" cx="0" cy="0" r="25" fill="#F16667" stroke="#eb2728" stroke-width="2px"/><text class="caption" text-anchor="middle" pointer-events="none" x="0" y="-5" font-size="10px" fill="#FFFFFF" font-family="Helvetica Neue, Helvetica, Arial, sans-serif"> American</text><text class="caption" text-anchor="middle" pointer-events="none" x="0" y="5" font-size="10px" fill="#FFFFFF" font-family="Helvetica Neue, Helvetica, Arial, sans-serif"> Animation</text><text class="caption" text-anchor="middle" pointer-events="none" x="0" y="15" font-size="10px" fill="#FFFFFF" font-family="Helvetica Neue, Helvetica, Arial, sans-serif"> </text></g><g class="node" aria-label="graph-node2" transform="translate(-33.319410231897955,462.7897758893659)"><circle class="b-outline" cx="0" cy="0" r="25" fill="#C990C0" stroke="#b261a5" stroke-width="2px"/><text class="caption" text-anchor="middle" pointer-events="none" x="0" y="-5" font-size="10px" fill="#FFFFFF" font-family="Helvetica Neue, Helvetica, Arial, sans-serif"> Disney</text><text class="caption" text-anchor="middle" pointer-events="none" x="0" y="5" font-size="10px" fill="#FFFFFF" font-family="Helvetica Neue, Helvetica, Arial, sans-serif"> Brothers</text><text class="caption" text-anchor="middle" pointer-events="none" x="0" y="15" font-size="10px" fill="#FFFFFF" font-family="Helvetica Neue, Helvetica, Arial, sans-serif"> Stu</text></g><g class="node" aria-label="graph-node3" transform="translate(185.76399164783786,695.6587209944885)"><circle class="b-outline" cx="0" cy="0" r="25" fill="#57C7E3" stroke="#23b3d7" stroke-width="2px"/><text class="caption" text-anchor="middle" pointer-events="none" x="0" y="0" font-size="10px" fill="#2A2C34" font-family="Helvetica Neue, Helvetica, Arial, sans-serif"> Roy</text><text class="caption" text-anchor="middle" pointer-events="none" x="0" y="10" font-size="10px" fill="#2A2C34" font-family="Helvetica Neue, Helvetica, Arial, sans-serif"> Disney</text></g><g class="node" aria-label="graph-node4" transform="translate(86.4409755760184,358.5655792244409)"><circle class="b-outline" cx="0" cy="0" r="25" fill="#57C7E3" stroke="#23b3d7" stroke-width="2px"/><text class="caption" text-anchor="middle" pointer-events="none" x="0" y="5" font-size="10px" fill="#2A2C34" font-family="Helvetica Neue, Helvetica, Arial, sans-serif"> Ub Iwerks</text></g><g class="node" aria-label="graph-node5" transform="translate(400.4827809544517,677.5803206074498)"><circle class="b-outline" cx="0" cy="0" r="25" fill="#F79767" stroke="#f36924" stroke-width="2px"/><text class="caption" text-anchor="middle" pointer-events="none" x="0" y="0" font-size="10px" fill="#FFFFFF" font-family="Helvetica Neue, Helvetica, Arial, sans-serif"> Mickey</text><text class="caption" text-anchor="middle" pointer-events="none" x="0" y="10" font-size="10px" fill="#FFFFFF" font-family="Helvetica Neue, Helvetica, Arial, sans-serif"> Mouse</text></g><g class="node" aria-label="graph-node6" transform="translate(235.00902601659712,518.0261297791658)"><circle class="b-outline" cx="0" cy="0" r="25" fill="#F79767" stroke="#f36924" stroke-width="2px"/><text class="caption" text-anchor="middle" pointer-events="none" x="0" y="-5" font-size="10px" fill="#FFFFFF" font-family="Helvetica Neue, Helvetica, Arial, sans-serif"> Snow</text><text class="caption" text-anchor="middle" pointer-events="none" x="0" y="5" font-size="10px" fill="#FFFFFF" font-family="Helvetica Neue, Helvetica, Arial, sans-serif"> White And</text><text class="caption" text-anchor="middle" pointer-events="none" x="0" y="15" font-size="10px" fill="#FFFFFF" font-family="Helvetica Neue, Helvetica, Arial, sans-serif"> The </text></g><g class="node" aria-label="graph-node7" transform="translate(468.1504590154905,495.3792808856238)"><circle class="b-outline" cx="0" cy="0" r="25" fill="#F79767" stroke="#f36924" stroke-width="2px"/><text class="caption" text-anchor="middle" pointer-events="none" x="0" y="5" font-size="10px" fill="#FFFFFF" font-family="Helvetica Neue, Helvetica, Arial, sans-serif"> Pinocchio</text></g><g class="node" aria-label="graph-node8" transform="translate(644.8150312024484,461.77773935097133)"><circle class="b-outline" cx="0" cy="0" r="25" fill="#F79767" stroke="#f36924" stroke-width="2px"/><text class="caption" text-anchor="middle" pointer-events="none" x="0" y="5" font-size="10px" fill="#FFFFFF" font-family="Helvetica Neue, Helvetica, Arial, sans-serif"> Fantasia</text></g><g class="node" aria-label="graph-node9" transform="translate(315.44393723598677,355.9500310100627)"><circle class="b-outline" cx="0" cy="0" r="25" fill="#F79767" stroke="#f36924" stroke-width="2px"/><text class="caption" text-anchor="middle" pointer-events="none" x="0" y="5" font-size="10px" fill="#FFFFFF" font-family="Helvetica Neue, Helvetica, Arial, sans-serif"> Dumbo</text></g><g class="node" aria-label="graph-node10" transform="translate(426.92887911051264,249.44641465006333)"><circle class="b-outline" cx="0" cy="0" r="25" fill="#F79767" stroke="#f36924" stroke-width="2px"/><text class="caption" text-anchor="middle" pointer-events="none" x="0" y="5" font-size="10px" fill="#FFFFFF" font-family="Helvetica Neue, Helvetica, Arial, sans-serif"> Bambi</text></g><g class="node" aria-label="graph-node11" transform="translate(693.1400617146545,274.1044996992412)"><circle class="b-outline" cx="0" cy="0" r="25" fill="#F79767" stroke="#f36924" stroke-width="2px"/><text class="caption" text-anchor="middle" pointer-events="none" x="0" y="5" font-size="10px" fill="#FFFFFF" font-family="Helvetica Neue, Helvetica, Arial, sans-serif"> Cinderella</text></g><g class="node" aria-label="graph-node12" transform="translate(809.8837508894817,97.80343711795855)"><circle class="b-outline" cx="0" cy="0" r="25" fill="#F79767" stroke="#f36924" stroke-width="2px"/><text class="caption" text-anchor="middle" pointer-events="none" x="0" y="0" font-size="10px" fill="#FFFFFF" font-family="Helvetica Neue, Helvetica, Arial, sans-serif"> Sleeping</text><text class="caption" text-anchor="middle" pointer-events="none" x="0" y="10" font-size="10px" fill="#FFFFFF" font-family="Helvetica Neue, Helvetica, Arial, sans-serif"> Beauty</text></g><g class="node" aria-label="graph-node13" transform="translate(454.52025090060863,96.41365578088757)"><circle class="b-outline" cx="0" cy="0" r="25" fill="#F79767" stroke="#f36924" stroke-width="2px"/><text class="caption" text-anchor="middle" pointer-events="none" x="0" y="0" font-size="10px" fill="#FFFFFF" font-family="Helvetica Neue, Helvetica, Arial, sans-serif"> Mary</text><text class="caption" text-anchor="middle" pointer-events="none" x="0" y="10" font-size="10px" fill="#FFFFFF" font-family="Helvetica Neue, Helvetica, Arial, sans-serif"> Poppins</text></g><g class="node" aria-label="graph-node14" transform="translate(686.1243208240084,0.7382961820402507)"><circle class="b-outline" cx="0" cy="0" r="25" fill="#D9C8AE" stroke="#c0a378" stroke-width="2px"/><text class="caption" text-anchor="middle" pointer-events="none" x="0" y="5" font-size="10px" fill="#2A2C34" font-family="Helvetica Neue, Helvetica, Arial, sans-serif"> Disneyla…</text></g><g class="node" aria-label="graph-node15" transform="translate(769.8401498756773,-216.11358657545006)"><circle class="b-outline" cx="0" cy="0" r="25" fill="#D9C8AE" stroke="#c0a378" stroke-width="2px"/><text class="caption" text-anchor="middle" pointer-events="none" x="0" y="0" font-size="10px" fill="#2A2C34" font-family="Helvetica Neue, Helvetica, Arial, sans-serif"> Disney</text><text class="caption" text-anchor="middle" pointer-events="none" x="0" y="10" font-size="10px" fill="#2A2C34" font-family="Helvetica Neue, Helvetica, Arial, sans-serif"> World</text></g><g class="node" aria-label="graph-node16" transform="translate(575.323376729116,-119.56080849702933)"><circle class="b-outline" cx="0" cy="0" r="25" fill="#D9C8AE" stroke="#c0a378" stroke-width="2px"/><text class="caption" text-anchor="middle" pointer-events="none" x="0" y="5" font-size="10px" fill="#2A2C34" font-family="Helvetica Neue, Helvetica, Arial, sans-serif"> Experim…</text></g><g class="node" aria-label="graph-node17" transform="translate(633.0434067986869,-368.632691505124)"><circle class="b-outline" cx="0" cy="0" r="25" fill="#8DCC93" stroke="#5db665" stroke-width="2px"/><text class="caption" text-anchor="middle" pointer-events="none" x="0" y="0" font-size="10px" fill="#2A2C34" font-family="Helvetica Neue, Helvetica, Arial, sans-serif"> Lung</text><text class="caption" text-anchor="middle" pointer-events="none" x="0" y="10" font-size="10px" fill="#2A2C34" font-family="Helvetica Neue, Helvetica, Arial, sans-serif"> Cancer</text></g><g class="node" aria-label="graph-node18" transform="translate(563.8775597693317,-559.6078528515061)"><circle class="b-outline" cx="0" cy="0" r="25" fill="#F16667" stroke="#eb2728" stroke-width="2px"/><text class="caption" text-anchor="middle" pointer-events="none" x="0" y="-5" font-size="10px" fill="#FFFFFF" font-family="Helvetica Neue, Helvetica, Arial, sans-serif"> Disney</text><text class="caption" text-anchor="middle" pointer-events="none" x="0" y="5" font-size="10px" fill="#FFFFFF" font-family="Helvetica Neue, Helvetica, Arial, sans-serif"> Theme</text><text class="caption" text-anchor="middle" pointer-events="none" x="0" y="15" font-size="10px" fill="#FFFFFF" font-family="Helvetica Neue, Helvetica, Arial, sans-serif"> Parks</text></g><g class="node" aria-label="graph-node19" transform="translate(49.67456346157033,-277.8326183628243)"><circle class="b-outline" cx="0" cy="0" r="25" fill="#ECB5C9" stroke="#da7298" stroke-width="2px"/><text class="caption" text-anchor="middle" pointer-events="none" x="0" y="-5" font-size="10px" fill="#2A2C34" font-family="Helvetica Neue, Helvetica, Arial, sans-serif"> Walter</text><text class="caption" text-anchor="middle" pointer-events="none" x="0" y="5" font-size="10px" fill="#2A2C34" font-family="Helvetica Neue, Helvetica, Arial, sans-serif"> Elias</text><text class="caption" text-anchor="middle" pointer-events="none" x="0" y="15" font-size="10px" fill="#2A2C34" font-family="Helvetica Neue, Helvetica, Arial, sans-serif"> Dis…</text></g><g class="node" aria-label="graph-node20" transform="translate(190.17692727273518,-159.33016939674368)"><circle class="b-outline" cx="0" cy="0" r="25" fill="#ECB5C9" stroke="#da7298" stroke-width="2px"/><text class="caption" text-anchor="middle" pointer-events="none" x="0" y="-5" font-size="10px" fill="#2A2C34" font-family="Helvetica Neue, Helvetica, Arial, sans-serif"> American</text><text class="caption" text-anchor="middle" pointer-events="none" x="0" y="5" font-size="10px" fill="#2A2C34" font-family="Helvetica Neue, Helvetica, Arial, sans-serif"> Animation</text><text class="caption" text-anchor="middle" pointer-events="none" x="0" y="15" font-size="10px" fill="#2A2C34" font-family="Helvetica Neue, Helvetica, Arial, sans-serif"> </text></g><g class="node" aria-label="graph-node21" transform="translate(155.2893020084903,-251.41853453956952)"><circle class="b-outline" cx="0" cy="0" r="25" fill="#ECB5C9" stroke="#da7298" stroke-width="2px"/><text class="caption" text-anchor="middle" pointer-events="none" x="0" y="-5" font-size="10px" fill="#2A2C34" font-family="Helvetica Neue, Helvetica, Arial, sans-serif"> Disney</text><text class="caption" text-anchor="middle" pointer-events="none" x="0" y="5" font-size="10px" fill="#2A2C34" font-family="Helvetica Neue, Helvetica, Arial, sans-serif"> Brothers</text><text class="caption" text-anchor="middle" pointer-events="none" x="0" y="15" font-size="10px" fill="#2A2C34" font-family="Helvetica Neue, Helvetica, Arial, sans-serif"> Stu</text></g><g class="node" aria-label="graph-node22" transform="translate(28.4237638526052,-101.70827900200445)"><circle class="b-outline" cx="0" cy="0" r="25" fill="#ECB5C9" stroke="#da7298" stroke-width="2px"/><text class="caption" text-anchor="middle" pointer-events="none" x="0" y="0" font-size="10px" fill="#2A2C34" font-family="Helvetica Neue, Helvetica, Arial, sans-serif"> Roy</text><text class="caption" text-anchor="middle" pointer-events="none" x="0" y="10" font-size="10px" fill="#2A2C34" font-family="Helvetica Neue, Helvetica, Arial, sans-serif"> Disney</text></g><g class="node" aria-label="graph-node23" transform="translate(251.0404129803944,-236.64639053709544)"><circle class="b-outline" cx="0" cy="0" r="25" fill="#ECB5C9" stroke="#da7298" stroke-width="2px"/><text class="caption" text-anchor="middle" pointer-events="none" x="0" y="5" font-size="10px" fill="#2A2C34" font-family="Helvetica Neue, Helvetica, Arial, sans-serif"> Ub Iwerks</text></g><g class="node" aria-label="graph-node24" transform="translate(107.38864038901558,-377.49171685460675)"><circle class="b-outline" cx="0" cy="0" r="25" fill="#ECB5C9" stroke="#da7298" stroke-width="2px"/><text class="caption" text-anchor="middle" pointer-events="none" x="0" y="0" font-size="10px" fill="#2A2C34" font-family="Helvetica Neue, Helvetica, Arial, sans-serif"> Mickey</text><text class="caption" text-anchor="middle" pointer-events="none" x="0" y="10" font-size="10px" fill="#2A2C34" font-family="Helvetica Neue, Helvetica, Arial, sans-serif"> Mouse</text></g><g class="node" aria-label="graph-node25" transform="translate(216.5833041284073,-327.80441141515286)"><circle class="b-outline" cx="0" cy="0" r="25" fill="#ECB5C9" stroke="#da7298" stroke-width="2px"/><text class="caption" text-anchor="middle" pointer-events="none" x="0" y="-5" font-size="10px" fill="#2A2C34" font-family="Helvetica Neue, Helvetica, Arial, sans-serif"> Snow</text><text class="caption" text-anchor="middle" pointer-events="none" x="0" y="5" font-size="10px" fill="#2A2C34" font-family="Helvetica Neue, Helvetica, Arial, sans-serif"> White And</text><text class="caption" text-anchor="middle" pointer-events="none" x="0" y="15" font-size="10px" fill="#2A2C34" font-family="Helvetica Neue, Helvetica, Arial, sans-serif"> The </text></g><g class="node" aria-label="graph-node26" transform="translate(125.5571444469214,-85.16693809284824)"><circle class="b-outline" cx="0" cy="0" r="25" fill="#ECB5C9" stroke="#da7298" stroke-width="2px"/><text class="caption" text-anchor="middle" pointer-events="none" x="0" y="5" font-size="10px" fill="#2A2C34" font-family="Helvetica Neue, Helvetica, Arial, sans-serif"> Pinocchio</text></g><g class="node" aria-label="graph-node27" transform="translate(24.359030029633473,-431.94951816264177)"><circle class="b-outline" cx="0" cy="0" r="25" fill="#ECB5C9" stroke="#da7298" stroke-width="2px"/><text class="caption" text-anchor="middle" pointer-events="none" x="0" y="5" font-size="10px" fill="#2A2C34" font-family="Helvetica Neue, Helvetica, Arial, sans-serif"> Fantasia</text></g><g class="node" aria-label="graph-node28" transform="translate(93.04404557204168,-175.8583850078504)"><circle class="b-outline" cx="0" cy="0" r="25" fill="#ECB5C9" stroke="#da7298" stroke-width="2px"/><text class="caption" text-anchor="middle" pointer-events="none" x="0" y="5" font-size="10px" fill="#2A2C34" font-family="Helvetica Neue, Helvetica, Arial, sans-serif"> Dumbo</text></g><g class="node" aria-label="graph-node29" transform="translate(-31.906959893007052,-351.8029903083533)"><circle class="b-outline" cx="0" cy="0" r="25" fill="#ECB5C9" stroke="#da7298" stroke-width="2px"/><text class="caption" text-anchor="middle" pointer-events="none" x="0" y="5" font-size="10px" fill="#2A2C34" font-family="Helvetica Neue, Helvetica, Arial, sans-serif"> Bambi</text></g><g class="node" aria-label="graph-node30" transform="translate(193.85934219508218,-423.28113803390744)"><circle class="b-outline" cx="0" cy="0" r="25" fill="#ECB5C9" stroke="#da7298" stroke-width="2px"/><text class="caption" text-anchor="middle" pointer-events="none" x="0" y="5" font-size="10px" fill="#2A2C34" font-family="Helvetica Neue, Helvetica, Arial, sans-serif"> Cinderella</text></g><g class="node" aria-label="graph-node31" transform="translate(110.20606170243248,-475.8447958739386)"><circle class="b-outline" cx="0" cy="0" r="25" fill="#ECB5C9" stroke="#da7298" stroke-width="2px"/><text class="caption" text-anchor="middle" pointer-events="none" x="0" y="0" font-size="10px" fill="#2A2C34" font-family="Helvetica Neue, Helvetica, Arial, sans-serif"> Sleeping</text><text class="caption" text-anchor="middle" pointer-events="none" x="0" y="10" font-size="10px" fill="#2A2C34" font-family="Helvetica Neue, Helvetica, Arial, sans-serif"> Beauty</text></g><g class="node" aria-label="graph-node32" transform="translate(-73.38254712428375,-439.2327468724257)"><circle class="b-outline" cx="0" cy="0" r="25" fill="#ECB5C9" stroke="#da7298" stroke-width="2px"/><text class="caption" text-anchor="middle" pointer-events="none" x="0" y="0" font-size="10px" fill="#2A2C34" font-family="Helvetica Neue, Helvetica, Arial, sans-serif"> Mary</text><text class="caption" text-anchor="middle" pointer-events="none" x="0" y="10" font-size="10px" fill="#2A2C34" font-family="Helvetica Neue, Helvetica, Arial, sans-serif"> Poppins</text></g><g class="node" aria-label="graph-node33" transform="translate(-130.29512195121018,-359.0139328392499)"><circle class="b-outline" cx="0" cy="0" r="25" fill="#ECB5C9" stroke="#da7298" stroke-width="2px"/><text class="caption" text-anchor="middle" pointer-events="none" x="0" y="5" font-size="10px" fill="#2A2C34" font-family="Helvetica Neue, Helvetica, Arial, sans-serif"> Disneyla…</text></g><g class="node" aria-label="graph-node34" transform="translate(-89.0392481814318,-271.094282749679)"><circle class="b-outline" cx="0" cy="0" r="25" fill="#ECB5C9" stroke="#da7298" stroke-width="2px"/><text class="caption" text-anchor="middle" pointer-events="none" x="0" y="0" font-size="10px" fill="#2A2C34" font-family="Helvetica Neue, Helvetica, Arial, sans-serif"> Disney</text><text class="caption" text-anchor="middle" pointer-events="none" x="0" y="10" font-size="10px" fill="#2A2C34" font-family="Helvetica Neue, Helvetica, Arial, sans-serif"> World</text></g><g class="node" aria-label="graph-node35" transform="translate(-127.76777875641461,-181.19496429841314)"><circle class="b-outline" cx="0" cy="0" r="25" fill="#ECB5C9" stroke="#da7298" stroke-width="2px"/><text class="caption" text-anchor="middle" pointer-events="none" x="0" y="5" font-size="10px" fill="#2A2C34" font-family="Helvetica Neue, Helvetica, Arial, sans-serif"> Experim…</text></g><g class="node" aria-label="graph-node36" transform="translate(-29.94119575079361,-189.64028060202236)"><circle class="b-outline" cx="0" cy="0" r="25" fill="#ECB5C9" stroke="#da7298" stroke-width="2px"/><text class="caption" text-anchor="middle" pointer-events="none" x="0" y="0" font-size="10px" fill="#2A2C34" font-family="Helvetica Neue, Helvetica, Arial, sans-serif"> Lung</text><text class="caption" text-anchor="middle" pointer-events="none" x="0" y="10" font-size="10px" fill="#2A2C34" font-family="Helvetica Neue, Helvetica, Arial, sans-serif"> Cancer</text></g><g class="node" aria-label="graph-node37" transform="translate(-68.71442869164723,-101.2524753064792)"><circle class="b-outline" cx="0" cy="0" r="25" fill="#ECB5C9" stroke="#da7298" stroke-width="2px"/><text class="caption" text-anchor="middle" pointer-events="none" x="0" y="-5" font-size="10px" fill="#2A2C34" font-family="Helvetica Neue, Helvetica, Arial, sans-serif"> Disney</text><text class="caption" text-anchor="middle" pointer-events="none" x="0" y="5" font-size="10px" fill="#2A2C34" font-family="Helvetica Neue, Helvetica, Arial, sans-serif"> Theme</text><text class="caption" text-anchor="middle" pointer-events="none" x="0" y="15" font-size="10px" fill="#2A2C34" font-family="Helvetica Neue, Helvetica, Arial, sans-serif"> Parks</text></g><g class="node" aria-label="graph-node38" transform="translate(-422.386673593755,-650.3003720456305)"><circle class="b-outline" cx="0" cy="0" r="25" fill="#D9C8AE" stroke="#c0a378" stroke-width="2px"/><text class="caption" text-anchor="middle" pointer-events="none" x="0" y="-5" font-size="10px" fill="#2A2C34" font-family="Helvetica Neue, Helvetica, Arial, sans-serif"> Walt</text><text class="caption" text-anchor="middle" pointer-events="none" x="0" y="5" font-size="10px" fill="#2A2C34" font-family="Helvetica Neue, Helvetica, Arial, sans-serif"> Disney</text><text class="caption" text-anchor="middle" pointer-events="none" x="0" y="15" font-size="10px" fill="#2A2C34" font-family="Helvetica Neue, Helvetica, Arial, sans-serif">R…</text></g><g class="node" aria-label="graph-node39" transform="translate(-684.8896979641083,-444.67667714940495)"><circle class="b-outline" cx="0" cy="0" r="25" fill="#C990C0" stroke="#b261a5" stroke-width="2px"/><text class="caption" text-anchor="middle" pointer-events="none" x="0" y="0" font-size="10px" fill="#FFFFFF" font-family="Helvetica Neue, Helvetica, Arial, sans-serif"> Disney</text><text class="caption" text-anchor="middle" pointer-events="none" x="0" y="10" font-size="10px" fill="#FFFFFF" font-family="Helvetica Neue, Helvetica, Arial, sans-serif"> Experi…</text></g><g class="node" aria-label="graph-node40" transform="translate(-439.83933731202535,-468.3254857444309)"><circle class="b-outline" cx="0" cy="0" r="25" fill="#C990C0" stroke="#b261a5" stroke-width="2px"/><text class="caption" text-anchor="middle" pointer-events="none" x="0" y="-5" font-size="10px" fill="#FFFFFF" font-family="Helvetica Neue, Helvetica, Arial, sans-serif"> The Walt</text><text class="caption" text-anchor="middle" pointer-events="none" x="0" y="5" font-size="10px" fill="#FFFFFF" font-family="Helvetica Neue, Helvetica, Arial, sans-serif"> Disney</text><text class="caption" text-anchor="middle" pointer-events="none" x="0" y="15" font-size="10px" fill="#FFFFFF" font-family="Helvetica Neue, Helvetica, Arial, sans-serif"> Com</text></g><g class="node" aria-label="graph-node41" transform="translate(-589.6232041831163,-319.67320730790243)"><circle class="b-outline" cx="0" cy="0" r="25" fill="#57C7E3" stroke="#23b3d7" stroke-width="2px"/><text class="caption" text-anchor="middle" pointer-events="none" x="0" y="0" font-size="10px" fill="#2A2C34" font-family="Helvetica Neue, Helvetica, Arial, sans-serif"> Walt</text><text class="caption" text-anchor="middle" pointer-events="none" x="0" y="10" font-size="10px" fill="#2A2C34" font-family="Helvetica Neue, Helvetica, Arial, sans-serif"> Disney</text></g><g class="node" aria-label="graph-node42" transform="translate(-797.4480267950142,-146.79877512756218)"><circle class="b-outline" cx="0" cy="0" r="25" fill="#57C7E3" stroke="#23b3d7" stroke-width="2px"/><text class="caption" text-anchor="middle" pointer-events="none" x="0" y="0" font-size="10px" fill="#2A2C34" font-family="Helvetica Neue, Helvetica, Arial, sans-serif"> Roy O.</text><text class="caption" text-anchor="middle" pointer-events="none" x="0" y="10" font-size="10px" fill="#2A2C34" font-family="Helvetica Neue, Helvetica, Arial, sans-serif"> Disney</text></g><g class="node" aria-label="graph-node43" transform="translate(-428.30903275365705,-168.95637864685511)"><circle class="b-outline" cx="0" cy="0" r="25" fill="#F16667" stroke="#eb2728" stroke-width="2px"/><text class="caption" text-anchor="middle" pointer-events="none" x="0" y="0" font-size="10px" fill="#FFFFFF" font-family="Helvetica Neue, Helvetica, Arial, sans-serif"> Magic</text><text class="caption" text-anchor="middle" pointer-events="none" x="0" y="10" font-size="10px" fill="#FFFFFF" font-family="Helvetica Neue, Helvetica, Arial, sans-serif"> Kingd…</text></g><g class="node" aria-label="graph-node44" transform="translate(-577.7319982137624,-112.67362665864282)"><circle class="b-outline" cx="0" cy="0" r="25" fill="#F16667" stroke="#eb2728" stroke-width="2px"/><text class="caption" text-anchor="middle" pointer-events="none" x="0" y="5" font-size="10px" fill="#FFFFFF" font-family="Helvetica Neue, Helvetica, Arial, sans-serif"> Epcot</text></g><g class="node" aria-label="graph-node45" transform="translate(-892.2072041094607,148.6414062317745)"><circle class="b-outline" cx="0" cy="0" r="25" fill="#F16667" stroke="#eb2728" stroke-width="2px"/><text class="caption" text-anchor="middle" pointer-events="none" x="0" y="-5" font-size="10px" fill="#FFFFFF" font-family="Helvetica Neue, Helvetica, Arial, sans-serif"> Disney'S</text><text class="caption" text-anchor="middle" pointer-events="none" x="0" y="5" font-size="10px" fill="#FFFFFF" font-family="Helvetica Neue, Helvetica, Arial, sans-serif"> Hollywood</text><text class="caption" text-anchor="middle" pointer-events="none" x="0" y="15" font-size="10px" fill="#FFFFFF" font-family="Helvetica Neue, Helvetica, Arial, sans-serif"> </text></g><g class="node" aria-label="graph-node46" transform="translate(-296.3882016792448,155.28928023783538)"><circle class="b-outline" cx="0" cy="0" r="25" fill="#F16667" stroke="#eb2728" stroke-width="2px"/><text class="caption" text-anchor="middle" pointer-events="none" x="0" y="-5" font-size="10px" fill="#FFFFFF" font-family="Helvetica Neue, Helvetica, Arial, sans-serif"> Disney'S</text><text class="caption" text-anchor="middle" pointer-events="none" x="0" y="5" font-size="10px" fill="#FFFFFF" font-family="Helvetica Neue, Helvetica, Arial, sans-serif"> Animal</text><text class="caption" text-anchor="middle" pointer-events="none" x="0" y="15" font-size="10px" fill="#FFFFFF" font-family="Helvetica Neue, Helvetica, Arial, sans-serif"> Kin</text></g><g class="node" aria-label="graph-node47" transform="translate(-780.4064653878032,105.40017188612536)"><circle class="b-outline" cx="0" cy="0" r="25" fill="#ECB5C9" stroke="#da7298" stroke-width="2px"/><text class="caption" text-anchor="middle" pointer-events="none" x="0" y="-5" font-size="10px" fill="#2A2C34" font-family="Helvetica Neue, Helvetica, Arial, sans-serif"> Walt</text><text class="caption" text-anchor="middle" pointer-events="none" x="0" y="5" font-size="10px" fill="#2A2C34" font-family="Helvetica Neue, Helvetica, Arial, sans-serif"> Disney</text><text class="caption" text-anchor="middle" pointer-events="none" x="0" y="15" font-size="10px" fill="#2A2C34" font-family="Helvetica Neue, Helvetica, Arial, sans-serif">R…</text></g><g class="node" aria-label="graph-node48" transform="translate(-814.772675753032,273.03411440533597)"><circle class="b-outline" cx="0" cy="0" r="25" fill="#ECB5C9" stroke="#da7298" stroke-width="2px"/><text class="caption" text-anchor="middle" pointer-events="none" x="0" y="0" font-size="10px" fill="#2A2C34" font-family="Helvetica Neue, Helvetica, Arial, sans-serif"> Disney</text><text class="caption" text-anchor="middle" pointer-events="none" x="0" y="10" font-size="10px" fill="#2A2C34" font-family="Helvetica Neue, Helvetica, Arial, sans-serif"> Experi…</text></g><g class="node" aria-label="graph-node49" transform="translate(-708.8833099870122,172.23069168514368)"><circle class="b-outline" cx="0" cy="0" r="25" fill="#ECB5C9" stroke="#da7298" stroke-width="2px"/><text class="caption" text-anchor="middle" pointer-events="none" x="0" y="-5" font-size="10px" fill="#2A2C34" font-family="Helvetica Neue, Helvetica, Arial, sans-serif"> The Walt</text><text class="caption" text-anchor="middle" pointer-events="none" x="0" y="5" font-size="10px" fill="#2A2C34" font-family="Helvetica Neue, Helvetica, Arial, sans-serif"> Disney</text><text class="caption" text-anchor="middle" pointer-events="none" x="0" y="15" font-size="10px" fill="#2A2C34" font-family="Helvetica Neue, Helvetica, Arial, sans-serif"> Com</text></g><g class="node" aria-label="graph-node50" transform="translate(-619.2092845465353,128.49597335662918)"><circle class="b-outline" cx="0" cy="0" r="25" fill="#ECB5C9" stroke="#da7298" stroke-width="2px"/><text class="caption" text-anchor="middle" pointer-events="none" x="0" y="0" font-size="10px" fill="#2A2C34" font-family="Helvetica Neue, Helvetica, Arial, sans-serif"> Magic</text><text class="caption" text-anchor="middle" pointer-events="none" x="0" y="10" font-size="10px" fill="#2A2C34" font-family="Helvetica Neue, Helvetica, Arial, sans-serif"> Kingd…</text></g><g class="node" aria-label="graph-node51" transform="translate(-715.5390257971901,271.1747318587959)"><circle class="b-outline" cx="0" cy="0" r="25" fill="#ECB5C9" stroke="#da7298" stroke-width="2px"/><text class="caption" text-anchor="middle" pointer-events="none" x="0" y="5" font-size="10px" fill="#2A2C34" font-family="Helvetica Neue, Helvetica, Arial, sans-serif"> Epcot</text></g><g class="node" aria-label="graph-node52" transform="translate(-626.8461423233625,226.98640221140417)"><circle class="b-outline" cx="0" cy="0" r="25" fill="#ECB5C9" stroke="#da7298" stroke-width="2px"/><text class="caption" text-anchor="middle" pointer-events="none" x="0" y="-5" font-size="10px" fill="#2A2C34" font-family="Helvetica Neue, Helvetica, Arial, sans-serif"> Disney'S</text><text class="caption" text-anchor="middle" pointer-events="none" x="0" y="5" font-size="10px" fill="#2A2C34" font-family="Helvetica Neue, Helvetica, Arial, sans-serif"> Hollywood</text><text class="caption" text-anchor="middle" pointer-events="none" x="0" y="15" font-size="10px" fill="#2A2C34" font-family="Helvetica Neue, Helvetica, Arial, sans-serif"> </text></g><g class="node" aria-label="graph-node53" transform="translate(-648.2434541056512,33.41396427107287)"><circle class="b-outline" cx="0" cy="0" r="25" fill="#ECB5C9" stroke="#da7298" stroke-width="2px"/><text class="caption" text-anchor="middle" pointer-events="none" x="0" y="-5" font-size="10px" fill="#2A2C34" font-family="Helvetica Neue, Helvetica, Arial, sans-serif"> Disney'S</text><text class="caption" text-anchor="middle" pointer-events="none" x="0" y="5" font-size="10px" fill="#2A2C34" font-family="Helvetica Neue, Helvetica, Arial, sans-serif"> Animal</text><text class="caption" text-anchor="middle" pointer-events="none" x="0" y="15" font-size="10px" fill="#2A2C34" font-family="Helvetica Neue, Helvetica, Arial, sans-serif"> Kin</text></g><g class="node" aria-label="graph-node54" transform="translate(-270.87255248796106,649.5115936906137)"><circle class="b-outline" cx="0" cy="0" r="25" fill="#ECB5C9" stroke="#da7298" stroke-width="2px"/><text class="caption" text-anchor="middle" pointer-events="none" x="0" y="0" font-size="10px" fill="#2A2C34" font-family="Helvetica Neue, Helvetica, Arial, sans-serif"> Walt</text><text class="caption" text-anchor="middle" pointer-events="none" x="0" y="10" font-size="10px" fill="#2A2C34" font-family="Helvetica Neue, Helvetica, Arial, sans-serif"> Disney</text></g><g class="node" aria-label="graph-node55" transform="translate(-247.2322290874947,508.746395365785)"><circle class="b-outline" cx="0" cy="0" r="25" fill="#ECB5C9" stroke="#da7298" stroke-width="2px"/><text class="caption" text-anchor="middle" pointer-events="none" x="0" y="0" font-size="10px" fill="#2A2C34" font-family="Helvetica Neue, Helvetica, Arial, sans-serif"> Roy O.</text><text class="caption" text-anchor="middle" pointer-events="none" x="0" y="10" font-size="10px" fill="#2A2C34" font-family="Helvetica Neue, Helvetica, Arial, sans-serif"> Disney</text></g></g></svg>